<svg width="623" height="624" viewBox="0 0 623 624" fill="none" xmlns="http://www.w3.org/2000/svg">
<path d="M284.941 90.9298C335.675 84.8961 386.939 96.494 430.135 123.778C473.33 151.061 505.828 192.371 522.176 240.775C538.524 289.18 537.728 341.734 519.92 389.621C502.113 437.507 468.378 477.813 424.376 503.775L365.917 404.696C387.184 392.148 403.488 372.668 412.095 349.524C420.701 326.38 421.086 300.98 413.185 277.586C405.284 254.192 389.577 234.226 368.701 221.04C347.824 207.853 323.047 202.248 298.527 205.164L284.941 90.9298Z" fill="#FFAA66"/>
<path d="M426.102 502.745C401.055 517.83 373.283 527.834 344.37 532.186C315.457 536.538 285.971 535.152 257.593 528.108C229.216 521.065 202.504 508.5 178.983 491.133C155.461 473.766 135.59 451.936 120.505 426.89L219.052 367.537C226.342 379.642 235.946 390.193 247.314 398.587C258.682 406.98 271.592 413.053 285.307 416.457C299.022 419.861 313.274 420.531 327.247 418.428C341.221 416.324 354.644 411.489 366.749 404.198L426.102 502.745Z" fill="#FC6770"/>
<path d="M188.233 497.605C163.861 481.452 142.91 460.657 126.575 436.408C110.24 412.158 98.8419 384.928 93.0304 356.273C87.219 327.618 87.1085 298.099 92.7052 269.401C98.302 240.704 109.496 213.389 125.649 189.018L221.54 252.572C213.733 264.351 208.322 277.552 205.618 291.422C202.913 305.292 202.966 319.558 205.775 333.408C208.583 347.257 214.092 360.417 221.987 372.137C229.882 383.858 240.008 393.908 251.787 401.715L188.233 497.605Z" fill="#E30513"/>
<path d="M121.595 195.367C141.556 162.917 169.509 136.131 202.781 117.573C236.053 99.0149 273.531 89.3048 311.629 89.3718L311.426 204.411C293.013 204.379 274.9 209.072 258.82 218.041C242.739 227.01 229.229 239.956 219.582 255.639L121.595 195.367Z" fill="#7AEBD9"/>
</svg>
