<svg width="42" height="43" viewBox="0 0 42 43" fill="none" xmlns="http://www.w3.org/2000/svg">
<path d="M21.1306 4.1084C17.6909 4.1084 14.3285 5.12838 11.4685 7.03936C8.60849 8.95034 6.37941 11.6665 5.0631 14.8443C3.74679 18.0222 3.40239 21.519 4.07343 24.8926C4.74448 28.2662 6.40084 31.365 8.83306 33.7972C11.2653 36.2294 14.3641 37.8858 17.7377 38.5568C21.1113 39.2279 24.6081 38.8835 27.7859 37.5672C30.9638 36.2509 33.6799 34.0218 35.5909 31.1618C37.5019 28.3018 38.5219 24.9394 38.5219 21.4997C38.5219 19.2158 38.072 16.9543 37.198 14.8443C36.324 12.7343 35.043 10.8171 33.4281 9.20219C31.8131 7.58726 29.8959 6.30623 27.7859 5.43223C25.6759 4.55824 23.4144 4.1084 21.1306 4.1084V4.1084ZM21.1306 10.1954C21.6465 10.1954 22.1509 10.3484 22.5799 10.635C23.0089 10.9216 23.3432 11.3291 23.5407 11.8057C23.7381 12.2824 23.7898 12.8069 23.6891 13.313C23.5885 13.819 23.34 14.2838 22.9752 14.6487C22.6104 15.0135 22.1455 15.262 21.6395 15.3626C21.1335 15.4633 20.6089 15.4116 20.1323 15.2142C19.6556 15.0167 19.2482 14.6824 18.9615 14.2534C18.6749 13.8244 18.5219 13.32 18.5219 12.8041C18.5219 12.1122 18.7967 11.4486 19.2859 10.9594C19.7752 10.4702 20.4387 10.1954 21.1306 10.1954V10.1954ZM24.6088 31.0649H17.6523C17.1911 31.0649 16.7487 30.8817 16.4226 30.5555C16.0964 30.2294 15.9132 29.787 15.9132 29.3258C15.9132 28.8645 16.0964 28.4222 16.4226 28.096C16.7487 27.7699 17.1911 27.5867 17.6523 27.5867H19.3914V22.3693H17.6523C17.1911 22.3693 16.7487 22.186 16.4226 21.8599C16.0964 21.5337 15.9132 21.0914 15.9132 20.6301C15.9132 20.1689 16.0964 19.7265 16.4226 19.4004C16.7487 19.0742 17.1911 18.891 17.6523 18.891H21.1306C21.5918 18.891 22.0342 19.0742 22.3603 19.4004C22.6865 19.7265 22.8697 20.1689 22.8697 20.6301V27.5867H24.6088C25.0701 27.5867 25.5124 27.7699 25.8386 28.096C26.1647 28.4222 26.348 28.8645 26.348 29.3258C26.348 29.787 26.1647 30.2294 25.8386 30.5555C25.5124 30.8817 25.0701 31.0649 24.6088 31.0649Z" fill="black" fill-opacity="0.65"/>
</svg>
