<svg width="28" height="29" viewBox="0 0 28 29" fill="none" xmlns="http://www.w3.org/2000/svg">
<g clip-path="url(#clip0_1413_307739)">
<path d="M14 0.956543C11.2311 0.956543 8.52431 1.77763 6.22202 3.31597C3.91973 4.85431 2.12532 7.04081 1.06569 9.59897C0.00606598 12.1571 -0.271181 14.9721 0.269012 17.6878C0.809205 20.4035 2.14258 22.8981 4.10051 24.856C6.05845 26.814 8.55301 28.1473 11.2687 28.6875C13.9845 29.2277 16.7994 28.9505 19.3576 27.8909C21.9157 26.8312 24.1022 25.0368 25.6406 22.7345C27.1789 20.4322 28 17.7255 28 14.9565C28 13.118 27.6379 11.2975 26.9343 9.59897C26.2307 7.90041 25.1995 6.35707 23.8995 5.05705C22.5995 3.75703 21.0561 2.72579 19.3576 2.02223C17.659 1.31866 15.8385 0.956543 14 0.956543V0.956543ZM18.9 9.35654C19.3153 9.35654 19.7214 9.4797 20.0667 9.71045C20.412 9.9412 20.6812 10.2692 20.8401 10.6529C20.9991 11.0366 21.0407 11.4589 20.9597 11.8662C20.8786 12.2736 20.6786 12.6478 20.3849 12.9415C20.0912 13.2352 19.7171 13.4352 19.3097 13.5162C18.9023 13.5972 18.4801 13.5556 18.0964 13.3967C17.7126 13.2377 17.3847 12.9686 17.1539 12.6232C16.9232 12.2779 16.8 11.8719 16.8 11.4565C16.8 10.8996 17.0213 10.3654 17.4151 9.97162C17.8089 9.57779 18.343 9.35654 18.9 9.35654V9.35654ZM9.1 9.35654C9.51535 9.35654 9.92136 9.4797 10.2667 9.71045C10.612 9.9412 10.8812 10.2692 11.0402 10.6529C11.1991 11.0366 11.2407 11.4589 11.1597 11.8662C11.0786 12.2736 10.8786 12.6478 10.5849 12.9415C10.2912 13.2352 9.91705 13.4352 9.50969 13.5162C9.10233 13.5972 8.68009 13.5556 8.29637 13.3967C7.91264 13.2377 7.58467 12.9686 7.35392 12.6232C7.12317 12.2779 7 11.8719 7 11.4565C7 10.8996 7.22125 10.3654 7.61508 9.97162C8.00891 9.57779 8.54305 9.35654 9.1 9.35654ZM21.112 19.3805C20.8006 19.8859 20.4343 20.3554 20.02 20.7805C19.9969 20.8256 19.9688 20.8679 19.936 20.9065C19.6324 21.2081 19.3046 21.4844 18.956 21.7325V21.7325C18.1372 22.3395 17.2109 22.786 16.226 23.0485H16.002C15.758 23.1146 15.5102 23.1661 15.26 23.2025H14.994C14.672 23.2025 14.35 23.2025 14.014 23.2025C13.678 23.2025 13.356 23.2025 13.034 23.2025H12.768C12.5178 23.1661 12.27 23.1146 12.026 23.0485H11.802C10.8171 22.786 9.89083 22.3395 9.072 21.7325C8.72338 21.4844 8.39562 21.2081 8.092 20.9065C8.05925 20.8679 8.03106 20.8256 8.008 20.7805C7.59367 20.3554 7.22746 19.8859 6.916 19.3805C6.78414 19.2284 6.68666 19.0495 6.6302 18.8563C6.57374 18.663 6.55964 18.4598 6.58886 18.2606C6.61807 18.0614 6.68992 17.8708 6.79949 17.7019C6.90907 17.5329 7.05379 17.3896 7.22379 17.2817C7.39379 17.1738 7.58507 17.1039 7.78457 17.0766C7.98407 17.0493 8.1871 17.0655 8.37981 17.1238C8.57252 17.1822 8.75038 17.2814 8.90124 17.4148C9.05211 17.5481 9.17243 17.7124 9.254 17.8965C9.51032 18.3057 9.81594 18.6819 10.164 19.0165C10.3719 19.2133 10.5968 19.3913 10.836 19.5485L10.976 19.6465C11.8864 20.2033 12.9328 20.4979 14 20.4979C15.0672 20.4979 16.1136 20.2033 17.024 19.6465L17.164 19.5485C17.4032 19.3913 17.6281 19.2133 17.836 19.0165C18.1841 18.6819 18.4897 18.3057 18.746 17.8965C18.8363 17.7268 18.9606 17.5775 19.1111 17.4579C19.2616 17.3383 19.4352 17.251 19.6209 17.2014C19.8067 17.1518 20.0006 17.141 20.1908 17.1697C20.3809 17.1984 20.563 17.2659 20.7259 17.368C20.8888 17.4702 21.0288 17.6048 21.1374 17.7635C21.246 17.9221 21.3207 18.1014 21.3569 18.2903C21.3931 18.4791 21.3901 18.6733 21.348 18.8609C21.3058 19.0485 21.2255 19.2254 21.112 19.3805V19.3805Z" fill="#00B259"/>
</g>
<defs>
<clipPath id="clip0_1413_307739">
<rect width="28" height="28" fill="white" transform="translate(0 0.956543)"/>
</clipPath>
</defs>
</svg>
