<svg width="28" height="29" viewBox="0 0 28 29" fill="none" xmlns="http://www.w3.org/2000/svg">
<g clip-path="url(#clip0_1413_307757)">
<path d="M14 0.956543C11.2311 0.956543 8.52431 1.77763 6.22202 3.31597C3.91973 4.85431 2.12532 7.04081 1.06569 9.59897C0.00606598 12.1571 -0.271181 14.9721 0.269012 17.6878C0.809205 20.4035 2.14258 22.8981 4.10051 24.856C6.05845 26.814 8.55301 28.1473 11.2687 28.6875C13.9845 29.2277 16.7994 28.9505 19.3576 27.8909C21.9157 26.8312 24.1022 25.0368 25.6406 22.7345C27.1789 20.4322 28 17.7255 28 14.9565C28 13.118 27.6379 11.2975 26.9343 9.59897C26.2307 7.90041 25.1995 6.35707 23.8995 5.05705C22.5995 3.75703 21.0561 2.72579 19.3576 2.02223C17.659 1.31866 15.8385 0.956543 14 0.956543V0.956543ZM7 11.4565C7 11.0412 7.12317 10.6352 7.35392 10.2898C7.58467 9.9445 7.91264 9.67534 8.29637 9.51639C8.68009 9.35745 9.10233 9.31586 9.50969 9.39689C9.91705 9.47792 10.2912 9.67793 10.5849 9.97162C10.8786 10.2653 11.0786 10.6395 11.1597 11.0468C11.2407 11.4542 11.1991 11.8765 11.0402 12.2602C10.8812 12.6439 10.612 12.9719 10.2667 13.2026C9.92136 13.4334 9.51535 13.5565 9.1 13.5565C8.54305 13.5565 8.00891 13.3353 7.61508 12.9415C7.22125 12.5476 7 12.0135 7 11.4565ZM19.936 21.5505C19.6737 21.8113 19.3189 21.9576 18.949 21.9576C18.5791 21.9576 18.2243 21.8113 17.962 21.5505C16.8944 20.5321 15.4755 19.9639 14 19.9639C12.5245 19.9639 11.1056 20.5321 10.038 21.5505C9.7757 21.8113 9.42086 21.9576 9.051 21.9576C8.68114 21.9576 8.32631 21.8113 8.064 21.5505C7.93279 21.4204 7.82863 21.2655 7.75756 21.0949C7.68648 20.9243 7.64989 20.7414 7.64989 20.5565C7.64989 20.3717 7.68648 20.1887 7.75756 20.0181C7.82863 19.8475 7.93279 19.6927 8.064 19.5625C9.63901 17.9895 11.774 17.1059 14 17.1059C16.226 17.1059 18.361 17.9895 19.936 19.5625C20.0672 19.6927 20.1714 19.8475 20.2425 20.0181C20.3135 20.1887 20.3501 20.3717 20.3501 20.5565C20.3501 20.7414 20.3135 20.9243 20.2425 21.0949C20.1714 21.2655 20.0672 21.4204 19.936 21.5505V21.5505ZM18.9 13.5565C18.4847 13.5565 18.0786 13.4334 17.7333 13.2026C17.388 12.9719 17.1188 12.6439 16.9599 12.2602C16.8009 11.8765 16.7593 11.4542 16.8404 11.0468C16.9214 10.6395 17.1214 10.2653 17.4151 9.97162C17.7088 9.67793 18.083 9.47792 18.4903 9.39689C18.8977 9.31586 19.3199 9.35745 19.7036 9.51639C20.0874 9.67534 20.4153 9.9445 20.6461 10.2898C20.8768 10.6352 21 11.0412 21 11.4565C21 12.0135 20.7788 12.5476 20.3849 12.9415C19.9911 13.3353 19.457 13.5565 18.9 13.5565V13.5565Z" fill="#FC6770"/>
</g>
<defs>
<clipPath id="clip0_1413_307757">
<rect width="28" height="28" fill="white" transform="translate(0 0.956543)"/>
</clipPath>
</defs>
</svg>
