<svg width="43" height="43" viewBox="0 0 43 43" fill="none" xmlns="http://www.w3.org/2000/svg">
<circle cx="21.7829" cy="21.6086" r="17.3913" fill="white"/>
<path d="M21.7819 4.21753C18.3423 4.21753 14.9798 5.23751 12.1198 7.14849C9.25986 9.05947 7.03077 11.7756 5.71447 14.9535C4.39816 18.1313 4.05375 21.6281 4.7248 25.0017C5.39585 28.3753 7.05221 31.4741 9.48443 33.9063C11.9166 36.3386 15.0155 37.9949 18.3891 38.666C21.7626 39.337 25.2595 38.9926 28.4373 37.6763C31.6151 36.36 34.3313 34.1309 36.2423 31.2709C38.1533 28.4109 39.1732 25.0485 39.1732 21.6088C39.1732 19.325 38.7234 17.0635 37.8494 14.9535C36.9754 12.8435 35.6944 10.9263 34.0794 9.31132C32.4645 7.69639 30.5473 6.41536 28.4373 5.54136C26.3273 4.66737 24.0658 4.21753 21.7819 4.21753ZM20.0428 12.0436C20.0428 11.5824 20.226 11.14 20.5522 10.8139C20.8783 10.4877 21.3207 10.3045 21.7819 10.3045C22.2432 10.3045 22.6855 10.4877 23.0117 10.8139C23.3378 11.14 23.5211 11.5824 23.5211 12.0436V22.4784C23.5211 22.9396 23.3378 23.382 23.0117 23.7082C22.6855 24.0343 22.2432 24.2175 21.7819 24.2175C21.3207 24.2175 20.8783 24.0343 20.5522 23.7082C20.226 23.382 20.0428 22.9396 20.0428 22.4784V12.0436ZM21.7819 32.9132C21.266 32.9132 20.7616 32.7602 20.3326 32.4735C19.9036 32.1869 19.5693 31.7795 19.3718 31.3028C19.1744 30.8261 19.1227 30.3016 19.2234 29.7956C19.324 29.2895 19.5725 28.8247 19.9373 28.4599C20.3021 28.095 20.767 27.8466 21.273 27.7459C21.779 27.6453 22.3036 27.6969 22.7802 27.8944C23.2569 28.0918 23.6643 28.4262 23.951 28.8552C24.2376 29.2842 24.3906 29.7885 24.3906 30.3045C24.3906 30.9964 24.1158 31.6599 23.6266 32.1491C23.1373 32.6383 22.4738 32.9132 21.7819 32.9132Z" fill="#F06D0F"/>
</svg>
