<svg width="43" height="42" viewBox="0 0 43 42" fill="none" xmlns="http://www.w3.org/2000/svg">
<circle cx="21.6745" cy="20.8696" r="17.3913" fill="white"/>
<path d="M21.6735 3.47827C18.2339 3.47827 14.8714 4.49825 12.0114 6.40923C9.15146 8.32022 6.92238 11.0364 5.60607 14.2142C4.28976 17.3921 3.94536 20.8889 4.6164 24.2625C5.28745 27.636 6.94381 30.7349 9.37603 33.1671C11.8082 35.5993 14.9071 37.2557 18.2807 37.9267C21.6542 38.5978 25.1511 38.2534 28.3289 36.937C31.5068 35.6207 34.2229 33.3917 36.1339 30.5317C38.0449 27.6717 39.0648 24.3093 39.0648 20.8696C39.0648 18.5857 38.615 16.3242 37.741 14.2142C36.867 12.1042 35.586 10.187 33.971 8.57207C32.3561 6.95713 30.4389 5.6761 28.3289 4.80211C26.2189 3.92811 23.9574 3.47827 21.6735 3.47827ZM19.9344 11.3044C19.9344 10.8431 20.1176 10.4008 20.4438 10.0746C20.7699 9.74846 21.2123 9.56523 21.6735 9.56523C22.1348 9.56523 22.5771 9.74846 22.9033 10.0746C23.2294 10.4008 23.4127 10.8431 23.4127 11.3044V21.7391C23.4127 22.2004 23.2294 22.6427 22.9033 22.9689C22.5771 23.295 22.1348 23.4783 21.6735 23.4783C21.2123 23.4783 20.7699 23.295 20.4438 22.9689C20.1176 22.6427 19.9344 22.2004 19.9344 21.7391V11.3044ZM21.6735 32.1739C21.1576 32.1739 20.6532 32.0209 20.2242 31.7343C19.7952 31.4476 19.4609 31.0402 19.2634 30.5635C19.066 30.0869 19.0143 29.5623 19.115 29.0563C19.2156 28.5503 19.4641 28.0854 19.8289 27.7206C20.1937 27.3558 20.6586 27.1073 21.1646 27.0067C21.6706 26.906 22.1952 26.9577 22.6718 27.1551C23.1485 27.3526 23.5559 27.6869 23.8426 28.1159C24.1292 28.5449 24.2822 29.0493 24.2822 29.5652C24.2822 30.2571 24.0074 30.9206 23.5182 31.4099C23.0289 31.8991 22.3654 32.1739 21.6735 32.1739Z" fill="#F06D0F"/>
</svg>
