<svg width="42" height="42" viewBox="0 0 42 42" fill="none" xmlns="http://www.w3.org/2000/svg">
<circle cx="21.0217" cy="20.8696" r="17.3913" fill="white"/>
<path d="M21.0217 3.47827C17.582 3.47827 14.2196 4.49825 11.3596 6.40923C8.49961 8.32022 6.27052 11.0364 4.95421 14.2142C3.63791 17.3921 3.2935 20.8889 3.96455 24.2625C4.6356 27.636 6.29196 30.7349 8.72417 33.1671C11.1564 35.5993 14.2552 37.2557 17.6288 37.9267C21.0024 38.5978 24.4992 38.2534 27.677 36.937C30.8549 35.6207 33.571 33.3917 35.482 30.5317C37.393 27.6717 38.413 24.3093 38.413 20.8696C38.413 18.5857 37.9631 16.3242 37.0892 14.2142C36.2152 12.1042 34.9341 10.187 33.3192 8.57207C31.7043 6.95713 29.7871 5.6761 27.677 4.80211C25.567 3.92811 23.3055 3.47827 21.0217 3.47827ZM19.2826 11.3044C19.2826 10.8431 19.4658 10.4008 19.7919 10.0746C20.1181 9.74846 20.5604 9.56523 21.0217 9.56523C21.4829 9.56523 21.9253 9.74846 22.2514 10.0746C22.5776 10.4008 22.7608 10.8431 22.7608 11.3044V21.7391C22.7608 22.2004 22.5776 22.6427 22.2514 22.9689C21.9253 23.295 21.4829 23.4783 21.0217 23.4783C20.5604 23.4783 20.1181 23.295 19.7919 22.9689C19.4658 22.6427 19.2826 22.2004 19.2826 21.7391V11.3044ZM21.0217 32.1739C20.5057 32.1739 20.0014 32.0209 19.5724 31.7343C19.1434 31.4476 18.809 31.0402 18.6116 30.5635C18.4141 30.0869 18.3625 29.5623 18.4631 29.0563C18.5638 28.5503 18.8122 28.0854 19.1771 27.7206C19.5419 27.3558 20.0067 27.1073 20.5128 27.0067C21.0188 26.906 21.5433 26.9577 22.02 27.1551C22.4967 27.3526 22.9041 27.6869 23.1907 28.1159C23.4774 28.5449 23.6304 29.0493 23.6304 29.5652C23.6304 30.2571 23.3555 30.9206 22.8663 31.4099C22.3771 31.8991 21.7136 32.1739 21.0217 32.1739Z" fill="#F06D0F"/>
</svg>
