<svg width="43" height="42" viewBox="0 0 43 42" fill="none" xmlns="http://www.w3.org/2000/svg">
<circle cx="21.239" cy="20.9565" r="17.3913" fill="white"/>
<path d="M21.238 3.56519C17.7983 3.56519 14.4359 4.58517 11.5759 6.49615C8.71592 8.40713 6.48683 11.1233 5.17052 14.3011C3.85422 17.479 3.50981 20.9758 4.18086 24.3494C4.8519 27.7229 6.50827 30.8218 8.94048 33.254C11.3727 35.6862 14.4715 37.3426 17.8451 38.0136C21.2187 38.6847 24.7155 38.3403 27.8934 37.024C31.0712 35.7077 33.7874 33.4786 35.6983 30.6186C37.6093 27.7586 38.6293 24.3962 38.6293 20.9565C38.6293 18.6726 38.1795 16.4111 37.3055 14.3011C36.4315 12.1911 35.1504 10.2739 33.5355 8.65898C31.9206 7.04405 30.0034 5.76301 27.8934 4.88902C25.7833 4.01503 23.5219 3.56519 21.238 3.56519ZM19.4989 11.3913C19.4989 10.93 19.6821 10.4877 20.0082 10.1615C20.3344 9.83537 20.7767 9.65214 21.238 9.65214C21.6992 9.65214 22.1416 9.83537 22.4677 10.1615C22.7939 10.4877 22.9771 10.93 22.9771 11.3913V21.8261C22.9771 22.2873 22.7939 22.7297 22.4677 23.0558C22.1416 23.382 21.6992 23.5652 21.238 23.5652C20.7767 23.5652 20.3344 23.382 20.0082 23.0558C19.6821 22.7297 19.4989 22.2873 19.4989 21.8261V11.3913ZM21.238 32.2608C20.722 32.2608 20.2177 32.1078 19.7887 31.8212C19.3597 31.5345 19.0253 31.1271 18.8279 30.6504C18.6304 30.1738 18.5788 29.6493 18.6794 29.1432C18.7801 28.6372 19.0285 28.1723 19.3934 27.8075C19.7582 27.4427 20.223 27.1942 20.7291 27.0936C21.2351 26.9929 21.7596 27.0446 22.2363 27.242C22.713 27.4395 23.1204 27.7738 23.407 28.2028C23.6937 28.6318 23.8467 29.1362 23.8467 29.6521C23.8467 30.344 23.5718 31.0075 23.0826 31.4968C22.5934 31.986 21.9299 32.2608 21.238 32.2608Z" fill="#F06D0F"/>
</svg>
