<svg width="43" height="42" viewBox="0 0 43 42" fill="none" xmlns="http://www.w3.org/2000/svg">
<circle cx="21.7614" cy="20.8696" r="17.3913" fill="white"/>
<path d="M21.7605 3.47827C18.3208 3.47827 14.9583 4.49825 12.0984 6.40923C9.23838 8.32022 7.00929 11.0364 5.69298 14.2142C4.37668 17.3921 4.03227 20.8889 4.70332 24.2625C5.37436 27.636 7.03073 30.7349 9.46294 33.1671C11.8952 35.5993 14.994 37.2557 18.3676 37.9267C21.7412 38.5978 25.238 38.2534 28.4158 36.937C31.5937 35.6207 34.3098 33.3917 36.2208 30.5317C38.1318 27.6717 39.1518 24.3093 39.1518 20.8696C39.1518 18.5857 38.7019 16.3242 37.8279 14.2142C36.9539 12.1042 35.6729 10.187 34.058 8.57207C32.443 6.95713 30.5258 5.6761 28.4158 4.80211C26.3058 3.92811 24.0443 3.47827 21.7605 3.47827ZM20.0213 11.3044C20.0213 10.8431 20.2046 10.4008 20.5307 10.0746C20.8569 9.74846 21.2992 9.56523 21.7605 9.56523C22.2217 9.56523 22.6641 9.74846 22.9902 10.0746C23.3164 10.4008 23.4996 10.8431 23.4996 11.3044V21.7391C23.4996 22.2004 23.3164 22.6427 22.9902 22.9689C22.6641 23.295 22.2217 23.4783 21.7605 23.4783C21.2992 23.4783 20.8569 23.295 20.5307 22.9689C20.2046 22.6427 20.0213 22.2004 20.0213 21.7391V11.3044ZM21.7605 32.1739C21.2445 32.1739 20.7401 32.0209 20.3111 31.7343C19.8821 31.4476 19.5478 31.0402 19.3503 30.5635C19.1529 30.0869 19.1012 29.5623 19.2019 29.0563C19.3025 28.5503 19.551 28.0854 19.9158 27.7206C20.2807 27.3558 20.7455 27.1073 21.2515 27.0067C21.7576 26.906 22.2821 26.9577 22.7588 27.1551C23.2354 27.3526 23.6429 27.6869 23.9295 28.1159C24.2162 28.5449 24.3691 29.0493 24.3691 29.5652C24.3691 30.2571 24.0943 30.9206 23.6051 31.4099C23.1159 31.8991 22.4523 32.1739 21.7605 32.1739Z" fill="#F06D0F"/>
</svg>
