<svg width="366" height="74" viewBox="0 0 366 74" fill="none" xmlns="http://www.w3.org/2000/svg">
<path d="M73.5703 37C73.5703 57.4325 57.1067 74 36.7851 74C16.4636 74 0 57.4325 0 37C0 16.5675 16.4713 0 36.7851 0C57.099 0 73.5703 16.5675 73.5703 37Z" fill="#1E7B74"/>
<path d="M16.3918 49.6182C16.9715 47.6969 17.5512 45.7782 18.1433 43.8245C17.4125 43.7223 16.7981 43.68 16.2035 43.5454C13.9441 43.0321 12.3288 41.1706 12.3065 38.8531C12.2545 33.9142 12.2446 28.9727 12.3065 24.0312C12.3436 21.3125 14.4866 19.2965 17.3208 19.2318C20.373 19.1695 23.4277 19.2118 26.4874 19.2118C30.1193 19.2118 33.7513 19.1969 37.3881 19.2118C41.0919 19.2293 43.0119 21.1854 43.0144 24.9108C43.0144 29.3963 43.0144 33.8817 43.0144 38.3672C43.0144 41.6341 40.9235 43.7098 37.6532 43.7198C33.8157 43.7198 29.9732 43.6949 26.1381 43.7472C25.4959 43.7673 24.872 43.9675 24.337 44.3254C21.7555 46.1021 19.2235 47.9511 16.6742 49.7727L16.3918 49.6182ZM25.7813 28.8132C25.9423 28.4444 26.0464 28.1753 26.1703 27.9186C26.7797 26.6552 28.0185 25.9575 29.3191 26.4234C29.9707 26.6502 30.6991 27.2757 30.9295 27.8961C31.1054 28.3696 30.6817 29.2169 30.2977 29.7202C29.8022 30.3632 29.059 30.8117 28.4669 31.3774C27.3694 32.4165 26.9804 33.6899 27.2281 35.2149H29.822C29.547 33.7198 30.4736 32.9498 31.4101 32.1648C31.9172 31.7414 32.3941 31.2826 32.8371 30.7918C34.2294 29.2443 34.1922 27.3031 32.7776 25.7631C30.7783 23.6051 26.6187 23.463 24.602 25.6011C23.9232 26.3238 23.5665 27.3455 22.9595 28.4195L25.7813 28.8132ZM29.993 36.3487H27.2281V39.0026H29.993V36.3487Z" fill="white"/>
<path d="M44.0959 25.8017C44.0736 25.403 44.0438 25.1613 44.0488 24.9221C44.0488 24.638 44.0835 24.3539 44.1132 23.9253H46.4668C49.5215 23.9253 52.5761 23.9253 55.6333 23.9253C59.3346 23.9427 61.3091 25.9188 61.3091 29.6118C61.3091 33.9694 61.3091 38.3294 61.3091 42.6919C61.3091 46.3301 59.5749 48.1916 55.943 48.4582C55.7815 48.4867 55.6218 48.525 55.4649 48.5728C55.7646 49.5696 56.057 50.5489 56.3518 51.5233C56.6466 52.4976 56.9488 53.4819 57.3428 54.7827C55.2543 53.2875 53.3144 52.1163 51.6149 50.6561C49.5784 48.9117 47.4032 48.2215 44.7202 48.4134C41.7621 48.6102 38.7743 48.4731 35.8014 48.4507C33.2967 48.4308 31.4658 47.0852 30.8936 44.8524C31.9044 44.663 32.6971 44.7428 33.48 45.6448C33.9458 46.1806 34.9268 46.5021 35.68 46.5095C42.4905 46.5743 49.3059 46.5619 56.1139 46.5444C58.1157 46.5444 59.3866 45.2984 59.3966 43.29C59.4263 38.5553 59.4263 33.8207 59.3966 29.086C59.3842 27.0925 58.0885 25.8466 56.1016 25.8291C52.1525 25.7868 48.1935 25.8017 44.0959 25.8017Z" fill="white"/>
<path d="M57.6141 36.4307C57.6144 36.6481 57.5707 36.8633 57.4858 37.0632C57.4008 37.2631 57.2764 37.4436 57.12 37.5936C56.9636 37.7437 56.7786 37.8603 56.576 37.9362C56.3735 38.0122 56.1578 38.0459 55.9419 38.0355C55.7255 38.04 55.5105 37.9994 55.3105 37.916C55.1106 37.8327 54.93 37.7085 54.7803 37.5513C54.6305 37.3941 54.5149 37.2074 54.4406 37.0029C54.3663 36.7984 54.3351 36.5807 54.3489 36.3634C54.3462 36.1457 54.388 35.9298 54.4715 35.729C54.5551 35.5282 54.6787 35.3467 54.8347 35.1959C54.9908 35.045 55.1759 34.9279 55.3786 34.8518C55.5814 34.7758 55.7976 34.7423 56.0137 34.7536C56.2296 34.7534 56.4434 34.7972 56.642 34.8822C56.8407 34.9673 57.0202 35.092 57.1697 35.2486C57.3192 35.4053 57.4357 35.5908 57.5121 35.794C57.5884 35.9971 57.6232 36.2137 57.6141 36.4307V36.4307Z" fill="white"/>
<path d="M48.2233 36.3796C48.2247 36.7045 48.1304 37.0225 47.9521 37.2934C47.7738 37.5643 47.5196 37.776 47.2217 37.9016C46.9238 38.0272 46.5956 38.061 46.2785 37.9989C45.9615 37.9368 45.6699 37.7815 45.4406 37.5526C45.2113 37.3238 45.0547 37.0317 44.9905 36.7132C44.9264 36.3948 44.9576 36.0644 45.0802 35.7638C45.2027 35.4632 45.4112 35.206 45.6792 35.0246C45.9472 34.8432 46.2627 34.7458 46.5857 34.7449C46.8014 34.7384 47.0162 34.7762 47.217 34.8559C47.4178 34.9355 47.6003 35.0555 47.7535 35.2084C47.9067 35.3614 48.0274 35.5441 48.1081 35.7454C48.1889 35.9468 48.2281 36.1625 48.2233 36.3796V36.3796Z" fill="white"/>
<path d="M51.2496 38.0356C50.9266 38.0301 50.6124 37.9283 50.3469 37.7431C50.0814 37.558 49.8765 37.2977 49.7581 36.9953C49.6397 36.693 49.6132 36.362 49.6819 36.0445C49.7506 35.7269 49.9114 35.437 50.144 35.2115C50.3765 34.9859 50.6704 34.8348 50.9884 34.7773C51.3064 34.7199 51.6342 34.7586 51.9304 34.8886C52.2265 35.0186 52.4776 35.2341 52.6519 35.5077C52.8262 35.7814 52.9158 36.1009 52.9095 36.4258C52.9114 36.6428 52.8693 36.858 52.7858 37.0581C52.7023 37.2582 52.5791 37.4391 52.4238 37.5898C52.2684 37.7404 52.0842 37.8576 51.8823 37.9343C51.6804 38.0109 51.4652 38.0454 51.2496 38.0356V38.0356Z" fill="white"/>
<path d="M104.056 22.6671C105.81 22.6671 107.358 23.0307 108.703 23.758C110.076 24.4852 111.128 25.4887 111.859 26.7686C112.619 28.0194 112.998 29.4302 112.998 31.001C112.998 32.31 112.765 33.5172 112.297 34.6226C111.859 35.6989 111.245 36.6006 110.456 37.3278C109.667 38.026 108.776 38.4914 107.782 38.7241V38.8114C109.039 39.1313 109.988 39.684 110.631 40.4694C111.274 41.2257 111.815 42.4765 112.253 44.2219C112.692 45.9672 113.218 48.8324 113.831 52.8176H107.125C106.745 50.1414 106.409 48.0907 106.116 46.6653C105.824 45.24 105.547 44.2509 105.284 43.6983C105.021 43.1165 104.728 42.6511 104.407 42.302C103.618 41.5457 102.507 41.1675 101.075 41.1675H94.5002V52.8176H87.6182V22.6671H104.056ZM101.645 36.2806C103.077 36.2806 104.173 35.9607 104.933 35.3207C105.722 34.6517 106.116 33.5754 106.116 32.0919C106.116 30.6665 105.736 29.6339 104.977 28.9939C104.217 28.354 103.077 28.034 101.558 28.034H94.5002V36.2806H101.645Z" fill="#141414"/>
<path d="M133.766 30.6956C133.678 29.5611 133.182 28.703 132.276 28.1213C131.399 27.5395 130.069 27.2486 128.287 27.2486C126.884 27.2486 125.73 27.5104 124.824 28.034C123.947 28.5576 123.509 29.2993 123.509 30.2593C123.509 30.8992 123.611 31.4228 123.816 31.8301C124.02 32.2082 124.385 32.5427 124.911 32.8336C125.467 33.0954 126.27 33.3718 127.322 33.6627L131.487 34.7535C133.562 35.3062 135.271 35.8879 136.615 36.4988C137.989 37.0806 139.143 37.9678 140.078 39.1604C141.013 40.324 141.481 41.8657 141.481 43.7855C141.481 45.7345 140.984 47.4362 139.991 48.8906C138.997 50.345 137.536 51.4795 135.607 52.294C133.708 53.1085 131.428 53.5157 128.769 53.5157C126.49 53.5157 124.371 53.1957 122.413 52.5558C120.484 51.8867 118.906 50.8541 117.679 49.4578C116.481 48.0325 115.882 46.2726 115.882 44.1782V43.9601H122.588V44.0473C122.588 45.5308 123.202 46.6071 124.429 47.2762C125.686 47.9161 127.264 48.2361 129.163 48.2361C130.771 48.2361 132.115 47.9598 133.196 47.4071C134.277 46.8253 134.818 45.9672 134.818 44.8327C134.818 43.8437 134.424 43.0292 133.635 42.3893C132.846 41.7493 131.516 41.1821 129.646 40.6876L123.64 39.0732C119.14 37.8805 116.89 35.2334 116.89 31.1319C116.89 29.183 117.416 27.5249 118.468 26.1578C119.549 24.7615 120.966 23.7143 122.72 23.0162C124.502 22.3181 126.446 21.969 128.55 21.969C130.771 21.969 132.773 22.289 134.555 22.9289C136.338 23.5398 137.755 24.4997 138.807 25.8087C139.888 27.1177 140.429 28.7467 140.429 30.6956H133.766Z" fill="#141414"/>
<path d="M165.302 43.0438H149.39C149.478 44.9636 149.989 46.4035 150.925 47.3634C151.86 48.2943 153.204 48.7597 154.957 48.7597C156.156 48.7597 157.149 48.527 157.938 48.0616C158.727 47.5961 159.209 46.9998 159.385 46.2726H164.908C164.294 48.5997 163.096 50.3741 161.313 51.5958C159.56 52.8176 157.339 53.4284 154.651 53.4284C152.313 53.4284 150.282 52.9485 148.558 51.9885C146.833 50.9995 145.504 49.6178 144.569 47.8434C143.663 46.0399 143.21 43.9455 143.21 41.5602C143.21 39.3204 143.677 37.2987 144.612 35.4952C145.577 33.6627 146.906 32.2373 148.601 31.2192C150.326 30.172 152.283 29.6484 154.475 29.6484C156.813 29.6484 158.786 30.1866 160.393 31.2628C162.029 32.31 163.257 33.7645 164.075 35.6261C164.922 37.4878 165.346 39.5967 165.346 41.9529L165.302 43.0438ZM159.122 39.1168C158.829 35.917 157.251 34.3171 154.388 34.3171C152.956 34.3171 151.801 34.7389 150.925 35.5825C150.077 36.4261 149.566 37.6042 149.39 39.1168H159.122Z" fill="#141414"/>
<path d="M182.709 35.6698C182.505 35.6116 182.242 35.568 181.92 35.5389C181.599 35.4807 181.219 35.4516 180.78 35.4516C178.706 35.4516 177.142 36.1061 176.09 37.4151C175.067 38.7241 174.556 40.4694 174.556 42.6511V52.8176H168.331V30.2593H174.249V34.448H174.337C174.863 32.9936 175.696 31.8301 176.835 30.9574C178.004 30.0847 179.349 29.6484 180.868 29.6484C181.569 29.6484 182.183 29.7211 182.709 29.8666V35.6698Z" fill="#141414"/>
<path d="M188.952 30.2593L193.467 45.6181H193.554L198.113 30.2593H204.294L196.886 52.8176H189.916L182.42 30.2593H188.952Z" fill="#141414"/>
<path d="M213.166 23.5834C213.166 24.2525 213.005 24.8488 212.683 25.3724C212.391 25.896 211.968 26.3178 211.412 26.6377C210.857 26.9286 210.229 27.0741 209.527 27.0741C208.826 27.0741 208.198 26.9286 207.643 26.6377C207.087 26.3178 206.649 25.896 206.327 25.3724C206.035 24.8488 205.889 24.2525 205.889 23.5834C205.889 22.9144 206.035 22.3181 206.327 21.7945C206.649 21.2709 207.087 20.8636 207.643 20.5727C208.198 20.2528 208.826 20.0928 209.527 20.0928C210.229 20.0928 210.857 20.2528 211.412 20.5727C211.968 20.8636 212.391 21.2709 212.683 21.7945C213.005 22.3181 213.166 22.9144 213.166 23.5834ZM212.64 30.2593V52.8176H206.415V30.2593H212.64Z" fill="#141414"/>
<path d="M231.816 37.5024C231.699 36.4552 231.29 35.6698 230.588 35.1462C229.916 34.6226 228.981 34.3608 227.783 34.3608C226.088 34.3608 224.758 34.9862 223.794 36.237C222.859 37.4878 222.391 39.2041 222.391 41.3857C222.391 43.6546 222.829 45.4436 223.706 46.7526C224.612 48.0616 225.927 48.7161 227.651 48.7161C228.879 48.7161 229.858 48.4106 230.588 47.7998C231.348 47.1889 231.801 46.2726 231.947 45.0509H237.952C237.748 46.8253 237.178 48.3379 236.243 49.5887C235.308 50.8395 234.08 51.7995 232.561 52.4685C231.041 53.1085 229.288 53.4284 227.301 53.4284C224.992 53.4284 222.99 52.9339 221.295 51.9449C219.63 50.9268 218.358 49.5305 217.482 47.7561C216.605 45.9817 216.167 43.9746 216.167 41.7348C216.167 39.2913 216.663 37.1678 217.657 35.3643C218.651 33.5318 220.024 32.121 221.777 31.1319C223.56 30.1429 225.591 29.6484 227.87 29.6484C229.77 29.6484 231.45 29.9684 232.911 30.6083C234.373 31.2483 235.527 32.1646 236.374 33.3572C237.251 34.5208 237.733 35.9025 237.821 37.5024H231.816Z" fill="#141414"/>
<path d="M261.935 43.0438H246.023C246.111 44.9636 246.623 46.4035 247.558 47.3634C248.493 48.2943 249.837 48.7597 251.59 48.7597C252.789 48.7597 253.782 48.527 254.571 48.0616C255.36 47.5961 255.842 46.9998 256.018 46.2726H261.541C260.927 48.5997 259.729 50.3741 257.947 51.5958C256.193 52.8176 253.972 53.4284 251.284 53.4284C248.946 53.4284 246.915 52.9485 245.191 51.9885C243.466 50.9995 242.137 49.6178 241.202 47.8434C240.296 46.0399 239.843 43.9455 239.843 41.5602C239.843 39.3204 240.31 37.2987 241.246 35.4952C242.21 33.6627 243.54 32.2373 245.234 31.2192C246.959 30.172 248.917 29.6484 251.108 29.6484C253.446 29.6484 255.419 30.1866 257.026 31.2628C258.662 32.31 259.89 33.7645 260.708 35.6261C261.556 37.4878 261.979 39.5967 261.979 41.9529L261.935 43.0438ZM255.755 39.1168C255.463 35.917 253.885 34.3171 251.021 34.3171C249.589 34.3171 248.434 34.7389 247.558 35.5825C246.71 36.4261 246.199 37.6042 246.023 39.1168H255.755Z" fill="#141414"/>
<path d="M278.772 22.6671C281.549 22.6671 283.974 23.2634 286.049 24.4561C288.153 25.6196 289.76 27.3213 290.871 29.5611C292.01 31.801 292.58 34.4771 292.58 37.5896C292.58 40.7603 292.025 43.4946 290.915 45.7926C289.804 48.0616 288.211 49.8069 286.137 51.0286C284.062 52.2212 281.607 52.8176 278.772 52.8176H265.578V22.6671H278.772ZM278.159 47.0144C279.591 47.0144 280.876 46.7089 282.016 46.0981C283.156 45.4581 284.047 44.4837 284.69 43.1747C285.362 41.8366 285.698 40.1494 285.698 38.1132C285.698 34.768 284.968 32.3246 283.507 30.7829C282.045 29.2412 279.897 28.4703 277.063 28.4703H272.46V47.0144H278.159Z" fill="#141414"/>
<path d="M317.052 43.0438H301.14C301.228 44.9636 301.739 46.4035 302.675 47.3634C303.61 48.2943 304.954 48.7597 306.707 48.7597C307.906 48.7597 308.899 48.527 309.688 48.0616C310.477 47.5961 310.959 46.9998 311.135 46.2726H316.658C316.044 48.5997 314.846 50.3741 313.063 51.5958C311.31 52.8176 309.089 53.4284 306.401 53.4284C304.063 53.4284 302.032 52.9485 300.308 51.9885C298.583 50.9995 297.254 49.6178 296.319 47.8434C295.413 46.0399 294.96 43.9455 294.96 41.5602C294.96 39.3204 295.427 37.2987 296.362 35.4952C297.327 33.6627 298.656 32.2373 300.351 31.2192C302.076 30.172 304.033 29.6484 306.225 29.6484C308.563 29.6484 310.536 30.1866 312.143 31.2628C313.779 32.31 315.007 33.7645 315.825 35.6261C316.672 37.4878 317.096 39.5967 317.096 41.9529L317.052 43.0438ZM310.872 39.1168C310.579 35.917 309.001 34.3171 306.138 34.3171C304.706 34.3171 303.551 34.7389 302.675 35.5825C301.827 36.4261 301.316 37.6042 301.14 39.1168H310.872Z" fill="#141414"/>
<path d="M333.013 36.2806C332.954 35.408 332.603 34.7826 331.961 34.4044C331.318 33.9972 330.383 33.7936 329.155 33.7936C328.015 33.7936 327.153 33.9826 326.569 34.3608C326.014 34.7098 325.736 35.2189 325.736 35.8879C325.736 36.4115 325.897 36.8479 326.218 37.1969C326.54 37.5169 327.007 37.7932 327.621 38.026C328.264 38.2587 329.126 38.4914 330.207 38.7241L332.75 39.2913C335.058 39.8149 336.768 40.6294 337.878 41.7348C338.989 42.8111 339.544 44.2219 339.544 45.9672C339.544 47.7125 339.076 49.1524 338.141 50.2868C337.235 51.3922 336.023 52.1922 334.503 52.6867C332.983 53.1812 331.288 53.4284 329.418 53.4284C327.402 53.4284 325.619 53.1521 324.07 52.5994C322.522 52.0467 321.294 51.2322 320.388 50.1559C319.512 49.0506 319.073 47.698 319.073 46.0981H324.991C325.02 47.1162 325.444 47.9016 326.262 48.4543C327.11 49.0069 328.176 49.2833 329.462 49.2833C330.572 49.2833 331.493 49.0651 332.224 48.6288C332.954 48.1925 333.319 47.538 333.319 46.6653C333.319 45.909 332.983 45.2836 332.311 44.7891C331.639 44.2655 330.572 43.8437 329.111 43.5237L326.613 42.9565C324.947 42.5783 323.588 42.1129 322.536 41.5602C321.513 40.9785 320.754 40.2803 320.257 39.4658C319.76 38.6514 319.512 37.6623 319.512 36.4988C319.512 35.0153 319.921 33.7645 320.739 32.7464C321.557 31.7283 322.697 30.9574 324.158 30.4338C325.619 29.9102 327.329 29.6484 329.287 29.6484C332.267 29.6484 334.576 30.2156 336.213 31.3501C337.878 32.4846 338.77 34.1281 338.886 36.2806H333.013Z" fill="#141414"/>
<path d="M349.275 38.4187H349.363L356.814 30.2593H364.091L354.579 39.9458C355.397 40.1203 356.201 40.5567 356.99 41.2548C357.779 41.9529 358.787 43.1892 360.014 44.9636C361.271 46.7089 362.951 49.3269 365.055 52.8176H357.603C355.996 49.9669 354.857 48.0034 354.184 46.9271C353.512 45.8508 352.913 45.0945 352.387 44.6582C351.89 44.2219 351.321 44.0037 350.678 44.0037L349.275 45.3999V52.8176H343.05V21.6636H349.275V38.4187Z" fill="#141414"/>
</svg>
