<svg width="366" height="74" viewBox="0 0 366 74" fill="none" xmlns="http://www.w3.org/2000/svg">
<path d="M73.5703 37C73.5703 57.4325 57.1067 74 36.7851 74C16.4636 74 0 57.4325 0 37C0 16.5675 16.4713 0 36.7851 0C57.099 0 73.5703 16.5675 73.5703 37Z" fill="#1E7B74"/>
<path d="M16.3918 49.6179C16.9715 47.6967 17.5512 45.7779 18.1433 43.8242C17.4125 43.7221 16.7981 43.6797 16.2035 43.5452C13.9441 43.0318 12.3288 41.1704 12.3065 38.8529C12.2545 33.9139 12.2446 28.9724 12.3065 24.0309C12.3436 21.3123 14.4866 19.2963 17.3208 19.2315C20.373 19.1692 23.4277 19.2116 26.4874 19.2116C30.1193 19.2116 33.7513 19.1966 37.3881 19.2116C41.0919 19.229 43.0119 21.1852 43.0144 24.9106C43.0144 29.396 43.0144 33.8815 43.0144 38.3669C43.0144 41.6338 40.9235 43.7096 37.6532 43.7196C33.8157 43.7196 29.9732 43.6947 26.1381 43.747C25.4959 43.767 24.872 43.9673 24.337 44.3251C21.7555 46.1019 19.2235 47.9509 16.6742 49.7724L16.3918 49.6179ZM25.7813 28.8129C25.9423 28.4441 26.0464 28.175 26.1703 27.9184C26.7797 26.655 28.0185 25.9572 29.3191 26.4232C29.9707 26.65 30.6991 27.2754 30.9295 27.8959C31.1054 28.3694 30.6817 29.2166 30.2977 29.72C29.8022 30.3629 29.059 30.8115 28.4669 31.3771C27.3694 32.4163 26.9804 33.6896 27.2281 35.2147H29.822C29.547 33.7195 30.4736 32.9495 31.4101 32.1646C31.9172 31.7412 32.3941 31.2824 32.8371 30.7915C34.2294 29.244 34.1922 27.3028 32.7776 25.7628C30.7783 23.6048 26.6187 23.4628 24.602 25.6009C23.9232 26.3235 23.5665 27.3452 22.9595 28.4192L25.7813 28.8129ZM29.993 36.3485H27.2281V39.0024H29.993V36.3485Z" fill="white"/>
<path d="M44.0959 25.8015C44.0736 25.4028 44.0438 25.161 44.0488 24.9218C44.0488 24.6377 44.0835 24.3537 44.1132 23.925H46.4668C49.5215 23.925 52.5761 23.925 55.6333 23.925C59.3346 23.9425 61.3091 25.9186 61.3091 29.6116C61.3091 33.9691 61.3091 38.3291 61.3091 42.6917C61.3091 46.3299 59.5749 48.1913 55.943 48.458C55.7815 48.4865 55.6218 48.5248 55.4649 48.5726C55.7646 49.5694 56.057 50.5487 56.3518 51.523C56.6466 52.4974 56.9488 53.4817 57.3428 54.7824C55.2543 53.2873 53.3144 52.1161 51.6149 50.6558C49.5784 48.9115 47.4032 48.2212 44.7202 48.4131C41.7621 48.61 38.7743 48.4729 35.8014 48.4505C33.2967 48.4305 31.4658 47.0849 30.8936 44.8522C31.9044 44.6628 32.6971 44.7425 33.48 45.6446C33.9458 46.1804 34.9268 46.5018 35.68 46.5093C42.4905 46.5741 49.3059 46.5616 56.1139 46.5442C58.1157 46.5442 59.3866 45.2982 59.3966 43.2897C59.4263 38.5551 59.4263 33.8204 59.3966 29.0858C59.3842 27.0923 58.0885 25.8463 56.1016 25.8289C52.1525 25.7865 48.1935 25.8015 44.0959 25.8015Z" fill="white"/>
<path d="M57.6141 36.4304C57.6144 36.6478 57.5707 36.863 57.4858 37.0629C57.4008 37.2629 57.2764 37.4433 57.12 37.5934C56.9636 37.7435 56.7786 37.86 56.576 37.936C56.3735 38.0119 56.1578 38.0457 55.9419 38.0352C55.7255 38.0398 55.5105 37.9991 55.3105 37.9158C55.1106 37.8325 54.93 37.7083 54.7803 37.5511C54.6305 37.3939 54.5149 37.2071 54.4406 37.0026C54.3663 36.7982 54.3351 36.5804 54.3489 36.3632C54.3462 36.1455 54.388 35.9295 54.4715 35.7287C54.5551 35.5279 54.6787 35.3465 54.8347 35.1956C54.9908 35.0447 55.1759 34.9277 55.3786 34.8516C55.5814 34.7755 55.7976 34.7421 56.0137 34.7534C56.2296 34.7532 56.4434 34.7969 56.642 34.882C56.8407 34.9671 57.0202 35.0917 57.1697 35.2484C57.3192 35.4051 57.4357 35.5906 57.5121 35.7937C57.5884 35.9968 57.6232 36.2134 57.6141 36.4304V36.4304Z" fill="white"/>
<path d="M48.2233 36.3793C48.2247 36.7042 48.1304 37.0222 47.9521 37.2932C47.7738 37.5641 47.5196 37.7757 47.2217 37.9013C46.9238 38.0269 46.5956 38.0608 46.2785 37.9987C45.9615 37.9366 45.6699 37.7813 45.4406 37.5524C45.2113 37.3235 45.0547 37.0314 44.9905 36.713C44.9264 36.3946 44.9576 36.0641 45.0802 35.7636C45.2027 35.463 45.4112 35.2057 45.6792 35.0243C45.9472 34.843 46.2627 34.7456 46.5857 34.7446C46.8014 34.7381 47.0162 34.7759 47.217 34.8556C47.4178 34.9353 47.6003 35.0553 47.7535 35.2082C47.9067 35.3611 48.0274 35.5438 48.1081 35.7452C48.1889 35.9465 48.2281 36.1623 48.2233 36.3793V36.3793Z" fill="white"/>
<path d="M51.2496 38.0353C50.9266 38.0298 50.6124 37.9281 50.3469 37.7429C50.0814 37.5577 49.8765 37.2975 49.7581 36.9951C49.6397 36.6927 49.6132 36.3618 49.6819 36.0442C49.7506 35.7267 49.9114 35.4368 50.144 35.2112C50.3765 34.9856 50.6704 34.8346 50.9884 34.7771C51.3064 34.7196 51.6342 34.7584 51.9304 34.8884C52.2265 35.0184 52.4776 35.2339 52.6519 35.5075C52.8262 35.7811 52.9158 36.1006 52.9095 36.4255C52.9114 36.6426 52.8693 36.8577 52.7858 37.0579C52.7023 37.258 52.5791 37.4389 52.4238 37.5895C52.2684 37.7402 52.0842 37.8574 51.8823 37.934C51.6804 38.0107 51.4652 38.0452 51.2496 38.0353V38.0353Z" fill="white"/>
<path d="M104.056 22.6674C105.81 22.6674 107.358 23.031 108.703 23.7582C110.076 24.4854 111.128 25.489 111.859 26.7689C112.619 28.0197 112.998 29.4305 112.998 31.0013C112.998 32.3103 112.765 33.5175 112.297 34.6228C111.859 35.6991 111.245 36.6009 110.456 37.3281C109.667 38.0262 108.776 38.4916 107.782 38.7243V38.8116C109.039 39.1316 109.988 39.6843 110.631 40.4697C111.274 41.226 111.815 42.4768 112.253 44.2221C112.692 45.9674 113.218 48.8327 113.831 52.8178H107.125C106.745 50.1416 106.409 48.0909 106.116 46.6655C105.824 45.2402 105.547 44.2512 105.284 43.6985C105.021 43.1167 104.728 42.6513 104.407 42.3022C103.618 41.5459 102.507 41.1678 101.075 41.1678H94.5002V52.8178H87.6182V22.6674H104.056ZM101.645 36.2809C103.077 36.2809 104.173 35.9609 104.933 35.321C105.722 34.6519 106.116 33.5756 106.116 32.0921C106.116 30.6668 105.736 29.6341 104.977 28.9942C104.217 28.3542 103.077 28.0342 101.558 28.0342H94.5002V36.2809H101.645Z" fill="#141414"/>
<path d="M133.766 30.6959C133.678 29.5614 133.182 28.7033 132.276 28.1215C131.399 27.5397 130.069 27.2488 128.287 27.2488C126.884 27.2488 125.73 27.5106 124.824 28.0342C123.947 28.5578 123.509 29.2996 123.509 30.2595C123.509 30.8995 123.611 31.4231 123.816 31.8303C124.02 32.2085 124.385 32.543 124.911 32.8339C125.467 33.0957 126.27 33.372 127.322 33.6629L131.487 34.7537C133.562 35.3064 135.271 35.8882 136.615 36.499C137.989 37.0808 139.143 37.968 140.078 39.1607C141.013 40.3242 141.481 41.8659 141.481 43.7858C141.481 45.7347 140.984 47.4364 139.991 48.8908C138.997 50.3453 137.536 51.4797 135.607 52.2942C133.708 53.1087 131.428 53.5159 128.769 53.5159C126.49 53.5159 124.371 53.196 122.413 52.556C120.484 51.887 118.906 50.8543 117.679 49.4581C116.481 48.0327 115.882 46.2729 115.882 44.1785V43.9603H122.588V44.0476C122.588 45.5311 123.202 46.6074 124.429 47.2764C125.686 47.9164 127.264 48.2363 129.163 48.2363C130.771 48.2363 132.115 47.96 133.196 47.4073C134.277 46.8255 134.818 45.9674 134.818 44.833C134.818 43.8439 134.424 43.0295 133.635 42.3895C132.846 41.7496 131.516 41.1823 129.646 40.6878L123.64 39.0734C119.14 37.8808 116.89 35.2337 116.89 31.1322C116.89 29.1832 117.416 27.5252 118.468 26.158C119.549 24.7618 120.966 23.7146 122.72 23.0164C124.502 22.3183 126.446 21.9692 128.55 21.9692C130.771 21.9692 132.773 22.2892 134.555 22.9292C136.338 23.54 137.755 24.5 138.807 25.8089C139.888 27.1179 140.429 28.7469 140.429 30.6959H133.766Z" fill="#141414"/>
<path d="M165.302 43.044H149.39C149.478 44.9639 149.989 46.4037 150.925 47.3637C151.86 48.2945 153.204 48.7599 154.957 48.7599C156.156 48.7599 157.149 48.5272 157.938 48.0618C158.727 47.5964 159.209 47.0001 159.385 46.2729H164.908C164.294 48.5999 163.096 50.3744 161.313 51.5961C159.56 52.8178 157.339 53.4287 154.651 53.4287C152.313 53.4287 150.282 52.9487 148.558 51.9888C146.833 50.9998 145.504 49.618 144.569 47.8436C143.663 46.0401 143.21 43.9458 143.21 41.5605C143.21 39.3207 143.677 37.299 144.612 35.4955C145.577 33.6629 146.906 32.2376 148.601 31.2194C150.326 30.1723 152.283 29.6487 154.475 29.6487C156.813 29.6487 158.786 30.1868 160.393 31.2631C162.029 32.3103 163.257 33.7647 164.075 35.6264C164.922 37.4881 165.346 39.597 165.346 41.9532L165.302 43.044ZM159.122 39.117C158.829 35.9173 157.251 34.3174 154.388 34.3174C152.956 34.3174 151.801 34.7392 150.925 35.5828C150.077 36.4263 149.566 37.6044 149.39 39.117H159.122Z" fill="#141414"/>
<path d="M182.709 35.67C182.505 35.6118 182.242 35.5682 181.92 35.5391C181.599 35.4809 181.219 35.4519 180.78 35.4519C178.706 35.4519 177.142 36.1063 176.09 37.4153C175.067 38.7243 174.556 40.4697 174.556 42.6513V52.8178H168.331V30.2595H174.249V34.4483H174.337C174.863 32.9939 175.696 31.8303 176.835 30.9576C178.004 30.085 179.349 29.6487 180.868 29.6487C181.569 29.6487 182.183 29.7214 182.709 29.8668V35.67Z" fill="#141414"/>
<path d="M188.952 30.2595L193.467 45.6184H193.554L198.113 30.2595H204.294L196.886 52.8178H189.916L182.42 30.2595H188.952Z" fill="#141414"/>
<path d="M213.166 23.5837C213.166 24.2527 213.005 24.849 212.683 25.3726C212.391 25.8962 211.968 26.318 211.412 26.638C210.857 26.9289 210.229 27.0743 209.527 27.0743C208.826 27.0743 208.198 26.9289 207.643 26.638C207.087 26.318 206.649 25.8962 206.327 25.3726C206.035 24.849 205.889 24.2527 205.889 23.5837C205.889 22.9146 206.035 22.3183 206.327 21.7947C206.649 21.2711 207.087 20.8639 207.643 20.573C208.198 20.253 208.826 20.093 209.527 20.093C210.229 20.093 210.857 20.253 211.412 20.573C211.968 20.8639 212.391 21.2711 212.683 21.7947C213.005 22.3183 213.166 22.9146 213.166 23.5837ZM212.64 30.2595V52.8178H206.415V30.2595H212.64Z" fill="#141414"/>
<path d="M231.816 37.5026C231.699 36.4554 231.29 35.67 230.588 35.1464C229.916 34.6228 228.981 34.361 227.783 34.361C226.088 34.361 224.758 34.9864 223.794 36.2372C222.859 37.4881 222.391 39.2043 222.391 41.3859C222.391 43.6549 222.829 45.4438 223.706 46.7528C224.612 48.0618 225.927 48.7163 227.651 48.7163C228.879 48.7163 229.858 48.4109 230.588 47.8C231.348 47.1891 231.801 46.2728 231.947 45.0511H237.952C237.748 46.8255 237.178 48.3381 236.243 49.589C235.308 50.8398 234.08 51.7997 232.561 52.4687C231.041 53.1087 229.288 53.4287 227.301 53.4287C224.992 53.4287 222.99 52.9342 221.295 51.9451C219.63 50.927 218.358 49.5308 217.482 47.7564C216.605 45.982 216.167 43.9748 216.167 41.735C216.167 39.2916 216.663 37.1681 217.657 35.3646C218.651 33.532 220.024 32.1212 221.777 31.1322C223.56 30.1432 225.591 29.6487 227.87 29.6487C229.77 29.6487 231.45 29.9686 232.911 30.6086C234.373 31.2485 235.527 32.1648 236.374 33.3575C237.251 34.521 237.733 35.9027 237.821 37.5026H231.816Z" fill="#141414"/>
<path d="M261.935 43.044H246.023C246.111 44.9639 246.623 46.4037 247.558 47.3637C248.493 48.2945 249.837 48.7599 251.59 48.7599C252.789 48.7599 253.782 48.5272 254.571 48.0618C255.36 47.5964 255.842 47.0001 256.018 46.2729H261.541C260.927 48.5999 259.729 50.3744 257.947 51.5961C256.193 52.8178 253.972 53.4287 251.284 53.4287C248.946 53.4287 246.915 52.9487 245.191 51.9888C243.466 50.9998 242.137 49.618 241.202 47.8436C240.296 46.0401 239.843 43.9458 239.843 41.5605C239.843 39.3207 240.31 37.299 241.246 35.4955C242.21 33.6629 243.54 32.2376 245.234 31.2194C246.959 30.1723 248.917 29.6487 251.108 29.6487C253.446 29.6487 255.419 30.1868 257.026 31.2631C258.662 32.3103 259.89 33.7647 260.708 35.6264C261.556 37.4881 261.979 39.597 261.979 41.9532L261.935 43.044ZM255.755 39.117C255.463 35.9173 253.885 34.3174 251.021 34.3174C249.589 34.3174 248.434 34.7392 247.558 35.5828C246.71 36.4263 246.199 37.6044 246.023 39.117H255.755Z" fill="#141414"/>
<path d="M278.772 22.6674C281.549 22.6674 283.974 23.2637 286.049 24.4563C288.153 25.6199 289.76 27.3216 290.871 29.5614C292.01 31.8012 292.58 34.4774 292.58 37.5899C292.58 40.7605 292.025 43.4949 290.915 45.7929C289.804 48.0618 288.211 49.8071 286.137 51.0289C284.062 52.2215 281.607 52.8178 278.772 52.8178H265.578V22.6674H278.772ZM278.159 47.0146C279.591 47.0146 280.876 46.7092 282.016 46.0983C283.156 45.4584 284.047 44.4839 284.69 43.1749C285.362 41.8368 285.698 40.1497 285.698 38.1135C285.698 34.7683 284.968 32.3248 283.507 30.7831C282.045 29.2414 279.897 28.4706 277.063 28.4706H272.46V47.0146H278.159Z" fill="#141414"/>
<path d="M317.052 43.044H301.14C301.228 44.9639 301.739 46.4037 302.675 47.3637C303.61 48.2945 304.954 48.7599 306.707 48.7599C307.906 48.7599 308.899 48.5272 309.688 48.0618C310.477 47.5964 310.959 47.0001 311.135 46.2729H316.658C316.044 48.5999 314.846 50.3744 313.063 51.5961C311.31 52.8178 309.089 53.4287 306.401 53.4287C304.063 53.4287 302.032 52.9487 300.308 51.9888C298.583 50.9998 297.254 49.618 296.319 47.8436C295.413 46.0401 294.96 43.9458 294.96 41.5605C294.96 39.3207 295.427 37.299 296.362 35.4955C297.327 33.6629 298.656 32.2376 300.351 31.2194C302.076 30.1723 304.033 29.6487 306.225 29.6487C308.563 29.6487 310.536 30.1868 312.143 31.2631C313.779 32.3103 315.007 33.7647 315.825 35.6264C316.672 37.4881 317.096 39.597 317.096 41.9532L317.052 43.044ZM310.872 39.117C310.579 35.9173 309.001 34.3174 306.138 34.3174C304.706 34.3174 303.551 34.7392 302.675 35.5828C301.827 36.4263 301.316 37.6044 301.14 39.117H310.872Z" fill="#141414"/>
<path d="M333.013 36.2809C332.954 35.4082 332.603 34.7828 331.961 34.4047C331.318 33.9974 330.383 33.7938 329.155 33.7938C328.015 33.7938 327.153 33.9829 326.569 34.361C326.014 34.7101 325.736 35.2191 325.736 35.8882C325.736 36.4118 325.897 36.8481 326.218 37.1972C326.54 37.5172 327.007 37.7935 327.621 38.0262C328.264 38.2589 329.126 38.4916 330.207 38.7243L332.75 39.2916C335.058 39.8152 336.768 40.6296 337.878 41.735C338.989 42.8113 339.544 44.2221 339.544 45.9674C339.544 47.7127 339.076 49.1526 338.141 50.2871C337.235 51.3925 336.023 52.1924 334.503 52.6869C332.983 53.1814 331.288 53.4287 329.418 53.4287C327.402 53.4287 325.619 53.1523 324.07 52.5996C322.522 52.047 321.294 51.2325 320.388 50.1562C319.512 49.0508 319.073 47.6982 319.073 46.0983H324.991C325.02 47.1164 325.444 47.9018 326.262 48.4545C327.11 49.0072 328.176 49.2835 329.462 49.2835C330.572 49.2835 331.493 49.0654 332.224 48.629C332.954 48.1927 333.319 47.5382 333.319 46.6655C333.319 45.9092 332.983 45.2838 332.311 44.7893C331.639 44.2657 330.572 43.8439 329.111 43.524L326.613 42.9567C324.947 42.5786 323.588 42.1132 322.536 41.5605C321.513 40.9787 320.754 40.2806 320.257 39.4661C319.76 38.6516 319.512 37.6626 319.512 36.499C319.512 35.0155 319.921 33.7647 320.739 32.7466C321.557 31.7285 322.697 30.9576 324.158 30.4341C325.619 29.9105 327.329 29.6487 329.287 29.6487C332.267 29.6487 334.576 30.2159 336.213 31.3503C337.878 32.4848 338.77 34.1283 338.886 36.2809H333.013Z" fill="#141414"/>
<path d="M349.275 38.4189H349.363L356.814 30.2595H364.091L354.579 39.9461C355.397 40.1206 356.201 40.5569 356.99 41.255C357.779 41.9532 358.787 43.1894 360.014 44.9639C361.271 46.7092 362.951 49.3272 365.055 52.8178H357.603C355.996 49.9671 354.857 48.0036 354.184 46.9273C353.512 45.8511 352.913 45.0948 352.387 44.6584C351.89 44.2221 351.321 44.0039 350.678 44.0039L349.275 45.4002V52.8178H343.05V21.6638H349.275V38.4189Z" fill="#141414"/>
</svg>
