<svg width="42" height="43" viewBox="0 0 42 43" fill="none" xmlns="http://www.w3.org/2000/svg">
<path d="M27.1953 7.91335C24.8723 7.98555 22.6516 8.88616 20.9345 10.4525C19.2173 8.88616 16.9967 7.98555 14.6736 7.91335C13.4318 7.90395 12.2007 8.14275 11.0524 8.61575C9.90423 9.08874 8.8621 9.78639 7.98725 10.6677C7.11239 11.5491 6.42245 12.5963 5.95794 13.748C5.49344 14.8997 5.26372 16.1325 5.28229 17.3742C5.28229 23.2351 9.8562 28.5568 17.7345 35.7394L18.5866 36.5221C19.2278 37.1087 20.0654 37.434 20.9345 37.434C21.8035 37.434 22.6411 37.1087 23.2823 36.5221L24.1345 35.7568C32.0127 28.5394 36.5866 23.2177 36.5866 17.3742C36.6052 16.1325 36.3755 14.8997 35.911 13.748C35.4465 12.5963 34.7565 11.5491 33.8817 10.6677C33.0068 9.78639 31.9647 9.08874 30.8165 8.61575C29.6683 8.14275 28.4371 7.90395 27.1953 7.91335V7.91335Z" fill="black" fill-opacity="0.65"/>
</svg>
