<svg width="43" height="43" viewBox="0 0 43 43" fill="none" xmlns="http://www.w3.org/2000/svg">
<path d="M27.4566 7.91335C25.1335 7.98555 22.9128 8.88616 21.1957 10.4525C19.4786 8.88616 17.2579 7.98555 14.9348 7.91335C13.693 7.90395 12.4619 8.14275 11.3137 8.61575C10.1655 9.08874 9.12333 9.78639 8.24848 10.6677C7.37362 11.5491 6.68368 12.5963 6.21918 13.748C5.75467 14.8997 5.52495 16.1325 5.54352 17.3742C5.54352 23.2351 10.1174 28.5568 17.9957 35.7394L18.8479 36.5221C19.4891 37.1087 20.3266 37.434 21.1957 37.434C22.0648 37.434 22.9023 37.1087 23.5435 36.5221L24.3957 35.7568C32.274 28.5394 36.8479 23.2177 36.8479 17.3742C36.8664 16.1325 36.6367 14.8997 36.1722 13.748C35.7077 12.5963 35.0178 11.5491 34.1429 10.6677C33.2681 9.78639 32.2259 9.08874 31.0777 8.61575C29.9295 8.14275 28.6984 7.90395 27.4566 7.91335V7.91335Z" fill="black" fill-opacity="0.65"/>
</svg>
