<svg width="43" height="43" viewBox="0 0 43 43" fill="none" xmlns="http://www.w3.org/2000/svg">
<path d="M27.9365 7.91335C25.6135 7.98555 23.3928 8.88616 21.6757 10.4525C19.9586 8.88616 17.7379 7.98555 15.4148 7.91335C14.173 7.90395 12.9419 8.14275 11.7937 8.61575C10.6454 9.08874 9.60331 9.78639 8.72846 10.6677C7.8536 11.5491 7.16366 12.5963 6.69916 13.748C6.23465 14.8997 6.00493 16.1325 6.0235 17.3742C6.0235 23.2351 10.5974 28.5568 18.4757 35.7394L19.3279 36.5221C19.9691 37.1087 20.8066 37.434 21.6757 37.434C22.5447 37.434 23.3823 37.1087 24.0235 36.5221L24.8757 35.7568C32.7539 28.5394 37.3279 23.2177 37.3279 17.3742C37.3464 16.1325 37.1167 14.8997 36.6522 13.748C36.1877 12.5963 35.4978 11.5491 34.6229 10.6677C33.748 9.78639 32.7059 9.08874 31.5577 8.61575C30.4095 8.14275 29.1783 7.90395 27.9365 7.91335V7.91335Z" fill="black" fill-opacity="0.65"/>
</svg>
