<svg width="43" height="43" viewBox="0 0 43 43" fill="none" xmlns="http://www.w3.org/2000/svg">
<path d="M27.8252 7.91335C25.5021 7.98555 23.2815 8.88616 21.5644 10.4525C19.8472 8.88616 17.6266 7.98555 15.3035 7.91335C14.0617 7.90395 12.8305 8.14275 11.6823 8.61575C10.5341 9.08874 9.49198 9.78639 8.61713 10.6677C7.74227 11.5491 7.05234 12.5963 6.58783 13.748C6.12332 14.8997 5.8936 16.1325 5.91218 17.3742C5.91218 23.2351 10.4861 28.5568 18.3643 35.7394L19.2165 36.5221C19.8577 37.1087 20.6953 37.434 21.5644 37.434C22.4334 37.434 23.271 37.1087 23.9122 36.5221L24.7644 35.7568C32.6426 28.5394 37.2165 23.2177 37.2165 17.3742C37.2351 16.1325 37.0054 14.8997 36.5409 13.748C36.0764 12.5963 35.3864 11.5491 34.5116 10.6677C33.6367 9.78639 32.5946 9.08874 31.4464 8.61575C30.2982 8.14275 29.067 7.90395 27.8252 7.91335V7.91335Z" fill="black" fill-opacity="0.65"/>
</svg>
