<svg width="43" height="43" viewBox="0 0 43 43" fill="none" xmlns="http://www.w3.org/2000/svg">
<path d="M27.6748 7.91335C25.3518 7.98555 23.1311 8.88616 21.414 10.4525C19.6968 8.88616 17.4762 7.98555 15.1531 7.91335C13.9113 7.90395 12.6802 8.14275 11.5319 8.61575C10.3837 9.08874 9.34159 9.78639 8.46674 10.6677C7.59188 11.5491 6.90195 12.5963 6.43744 13.748C5.97293 14.8997 5.74321 16.1325 5.76178 17.3742C5.76178 23.2351 10.3357 28.5568 18.214 35.7394L19.0661 36.5221C19.7073 37.1087 20.5449 37.434 21.414 37.434C22.283 37.434 23.1206 37.1087 23.7618 36.5221L24.614 35.7568C32.4922 28.5394 37.0661 23.2177 37.0661 17.3742C37.0847 16.1325 36.855 14.8997 36.3905 13.748C35.926 12.5963 35.236 11.5491 34.3612 10.6677C33.4863 9.78639 32.4442 9.08874 31.296 8.61575C30.1478 8.14275 28.9166 7.90395 27.6748 7.91335V7.91335Z" fill="black" fill-opacity="0.65"/>
</svg>
